<svg width="1394" height="1400" viewBox="0 0 1394 1400" fill="none" xmlns="http://www.w3.org/2000/svg">
<path d="M284.684 1057.69C279.161 1059.1 274.167 1058.74 269.702 1056.61C265.694 1053.71 262.985 1049.5 261.576 1043.98L251.239 1003.47C249.516 996.723 249.641 990.808 251.613 985.73C253.585 980.651 257.855 974.332 264.423 966.773L467.203 735.598L178.44 629.872C169.209 626.999 162.512 623.806 158.347 620.293C154.183 616.781 151.239 611.649 149.516 604.899L139.179 564.397C137.77 558.874 138.208 554.187 140.493 550.336C143.235 545.714 147.368 542.699 152.891 541.289C158.414 539.879 166.561 541.068 177.332 544.856L518.032 669.681C529.73 674.539 538.203 679.567 543.451 684.763C549.313 689.804 553.34 696.62 555.533 705.211L559.526 720.859C561.719 729.451 561.45 737.363 558.721 744.596C555.992 751.829 550.886 759.995 543.404 769.094L304.427 1042.84C296.788 1051.33 290.207 1056.28 284.684 1057.69Z" fill="#5FA31A" fill-opacity="0.98"/>
<path d="M745.741 1043.48C740.573 1044.8 735.785 1044.37 731.377 1042.19C727.485 1039.88 724.813 1035.89 723.363 1030.2L715.845 1000.75C714.526 995.578 715.021 991.049 717.33 987.157C720.025 982.616 723.956 979.686 729.123 978.367L1178.71 863.625C1183.88 862.306 1188.48 863.06 1192.5 865.886C1196.91 868.063 1199.77 871.736 1201.09 876.903L1208.61 906.359C1210.06 912.043 1209.63 916.832 1207.32 920.724C1205.01 924.616 1201.01 927.287 1195.33 928.738L745.741 1043.48Z" fill="black" fill-opacity="0.98"/>
</svg>
