<svg width="1069" height="1201" viewBox="0 0 1069 1201" fill="none" xmlns="http://www.w3.org/2000/svg">
<g filter="url(#filter0_d)">
<g filter="url(#filter1_d)">
<path d="M543.36 732C541.44 732 539.712 731.328 538.176 729.984C536.832 728.448 536.16 726.72 536.16 724.8V537.6C536.16 535.488 536.832 533.76 538.176 532.416C539.712 531.072 541.44 530.4 543.36 530.4H621.696C646.848 530.4 666.432 536.16 680.448 547.68C694.656 559.008 701.76 575.136 701.76 596.064C701.76 609.504 698.592 620.928 692.256 630.336C685.92 639.744 677.184 646.944 666.048 651.936L705.504 722.784C706.08 723.936 706.368 724.992 706.368 725.952C706.368 727.488 705.696 728.928 704.352 730.272C703.2 731.424 701.856 732 700.32 732H662.016C656.448 732 652.512 729.408 650.208 724.224L617.376 660.864H588V724.8C588 726.912 587.232 728.64 585.696 729.984C584.352 731.328 582.624 732 580.512 732H543.36ZM621.12 619.968C629.952 619.968 636.672 617.856 641.28 613.632C645.888 609.216 648.192 603.168 648.192 595.488C648.192 587.808 645.888 581.76 641.28 577.344C636.864 572.736 630.144 570.432 621.12 570.432H588V619.968H621.12Z" fill="#0491BE"/>
<path d="M798.645 734.88C777.333 734.88 760.341 728.736 747.669 716.448C735.189 703.968 728.565 686.496 727.797 664.032L727.509 656.832L727.797 649.632C728.757 627.744 735.477 610.56 747.957 598.08C760.629 585.6 777.525 579.36 798.645 579.36C821.301 579.36 838.773 586.272 851.061 600.096C863.541 613.92 869.781 632.352 869.781 655.392V661.44C869.781 663.36 869.109 664.992 867.765 666.336C866.421 667.68 864.693 668.352 862.581 668.352H766.965V670.656C767.349 681.216 770.229 690.144 775.605 697.44C781.173 704.544 788.757 708.096 798.357 708.096C809.685 708.096 818.805 703.68 825.717 694.848C827.445 692.736 828.789 691.392 829.749 690.816C830.901 690.24 832.533 689.952 834.645 689.952H859.413C861.141 689.952 862.581 690.528 863.733 691.68C865.077 692.64 865.749 693.888 865.749 695.424C865.749 700.032 862.965 705.504 857.397 711.84C852.021 717.984 844.245 723.36 834.069 727.968C823.893 732.576 812.085 734.88 798.645 734.88ZM830.613 644.16V643.296C830.613 631.968 827.733 622.848 821.973 615.936C816.405 609.024 808.629 605.568 798.645 605.568C788.661 605.568 780.885 609.024 775.317 615.936C769.749 622.848 766.965 631.968 766.965 643.296V644.16H830.613ZM921.236 786.72C919.7 786.72 918.356 786.144 917.204 784.992C916.052 783.84 915.476 782.496 915.476 780.96C915.476 779.232 915.86 777.696 916.628 776.352L939.092 723.072L883.796 592.608C883.028 590.88 882.644 589.536 882.644 588.576C882.836 586.848 883.508 585.408 884.66 584.256C885.812 582.912 887.252 582.24 888.98 582.24H912.308C915.956 582.24 918.548 584.064 920.084 587.712L958.388 681.888L997.844 587.712C999.38 584.064 1001.97 582.24 1005.62 582.24H1028.66C1030.2 582.24 1031.54 582.816 1032.69 583.968C1034.04 585.12 1034.71 586.464 1034.71 588C1034.71 589.344 1034.32 590.88 1033.56 592.608L952.052 781.248C950.324 784.896 947.636 786.72 943.988 786.72H921.236Z" fill="#0491BE"/>
<path d="M538.176 729.984L537.423 730.643L537.467 730.693L537.517 730.737L538.176 729.984ZM538.176 532.416L537.517 531.663L537.492 531.685L537.469 531.709L538.176 532.416ZM680.448 547.68L679.813 548.453L679.819 548.457L679.825 548.462L680.448 547.68ZM666.048 651.936L665.639 651.024L664.644 651.47L665.174 652.423L666.048 651.936ZM705.504 722.784L706.398 722.337L706.388 722.317L706.378 722.297L705.504 722.784ZM704.352 730.272L705.059 730.979L705.059 730.979L704.352 730.272ZM650.208 724.224L651.122 723.818L651.11 723.791L651.096 723.764L650.208 724.224ZM617.376 660.864L618.264 660.404L617.984 659.864H617.376V660.864ZM588 660.864V659.864H587V660.864H588ZM585.696 729.984L585.037 729.231L585.012 729.253L584.989 729.277L585.696 729.984ZM641.28 613.632L641.956 614.369L641.964 614.362L641.972 614.354L641.28 613.632ZM641.28 577.344L640.558 578.036L640.573 578.051L640.588 578.066L641.28 577.344ZM588 570.432V569.432H587V570.432H588ZM588 619.968H587V620.968H588V619.968ZM543.36 731C541.698 731 540.201 730.427 538.835 729.231L537.517 730.737C539.223 732.229 541.182 733 543.36 733V731ZM538.929 729.326C537.733 727.959 537.16 726.462 537.16 724.8H535.16C535.16 726.978 535.931 728.937 537.423 730.643L538.929 729.326ZM537.16 724.8V537.6H535.16V724.8H537.16ZM537.16 537.6C537.16 535.721 537.748 534.258 538.883 533.123L537.469 531.709C535.916 533.262 535.16 535.255 535.16 537.6H537.16ZM538.835 533.169C540.201 531.973 541.698 531.4 543.36 531.4V529.4C541.182 529.4 539.223 530.171 537.517 531.663L538.835 533.169ZM543.36 531.4H621.696V529.4H543.36V531.4ZM621.696 531.4C646.705 531.4 666.034 537.127 679.813 548.453L681.083 546.907C666.83 535.193 646.991 529.4 621.696 529.4V531.4ZM679.825 548.462C693.757 559.57 700.76 575.388 700.76 596.064H702.76C702.76 574.884 695.555 558.446 681.071 546.898L679.825 548.462ZM700.76 596.064C700.76 609.343 697.632 620.563 691.427 629.777L693.085 630.895C699.552 621.293 702.76 609.666 702.76 596.064H700.76ZM691.427 629.777C685.203 639.019 676.618 646.102 665.639 651.024L666.457 652.849C677.75 647.786 686.637 640.469 693.085 630.895L691.427 629.777ZM665.174 652.423L704.63 723.271L706.378 722.297L666.922 651.449L665.174 652.423ZM704.61 723.231C705.139 724.29 705.368 725.191 705.368 725.952H707.368C707.368 724.793 707.021 723.582 706.398 722.337L704.61 723.231ZM705.368 725.952C705.368 727.163 704.849 728.361 703.645 729.565L705.059 730.979C706.543 729.495 707.368 727.813 707.368 725.952H705.368ZM703.645 729.565C702.668 730.542 701.573 731 700.32 731V733C702.139 733 703.732 732.306 705.059 730.979L703.645 729.565ZM700.32 731H662.016V733H700.32V731ZM662.016 731C659.391 731 657.215 730.391 655.438 729.221C653.66 728.05 652.212 726.271 651.122 723.818L649.294 724.63C650.508 727.361 652.18 729.47 654.338 730.891C656.497 732.313 659.073 733 662.016 733V731ZM651.096 723.764L618.264 660.404L616.488 661.324L649.32 724.684L651.096 723.764ZM617.376 659.864H588V661.864H617.376V659.864ZM587 660.864V724.8H589V660.864H587ZM587 724.8C587 726.635 586.348 728.085 585.037 729.231L586.355 730.737C588.116 729.195 589 727.189 589 724.8H587ZM584.989 729.277C583.854 730.412 582.391 731 580.512 731V733C582.857 733 584.85 732.244 586.403 730.691L584.989 729.277ZM580.512 731H543.36V733H580.512V731ZM621.12 620.968C630.099 620.968 637.099 618.821 641.956 614.369L640.604 612.895C636.245 616.891 629.805 618.968 621.12 618.968V620.968ZM641.972 614.354C646.816 609.712 649.192 603.381 649.192 595.488H647.192C647.192 602.955 644.96 608.72 640.588 612.91L641.972 614.354ZM649.192 595.488C649.192 587.595 646.816 581.264 641.972 576.622L640.588 578.066C644.96 582.256 647.192 588.021 647.192 595.488H649.192ZM642.002 576.652C637.33 571.777 630.302 569.432 621.12 569.432V571.432C629.986 571.432 636.398 573.695 640.558 578.036L642.002 576.652ZM621.12 569.432H588V571.432H621.12V569.432ZM587 570.432V619.968H589V570.432H587ZM588 620.968H621.12V618.968H588V620.968ZM747.669 716.448L746.962 717.155L746.967 717.161L746.973 717.166L747.669 716.448ZM727.797 664.032L728.796 663.998L728.796 663.992L727.797 664.032ZM727.509 656.832L726.51 656.792L726.508 656.832L726.51 656.872L727.509 656.832ZM727.797 649.632L726.798 649.588L726.798 649.592L727.797 649.632ZM747.957 598.08L747.255 597.368L747.25 597.373L747.957 598.08ZM851.061 600.096L850.314 600.76L850.319 600.766L851.061 600.096ZM867.765 666.336L868.472 667.043L868.472 667.043L867.765 666.336ZM766.965 668.352V667.352H765.965V668.352H766.965ZM766.965 670.656H765.965V670.674L765.966 670.692L766.965 670.656ZM775.605 697.44L774.8 698.033L774.809 698.045L774.818 698.057L775.605 697.44ZM825.717 694.848L824.943 694.215L824.936 694.223L824.929 694.232L825.717 694.848ZM829.749 690.816L829.302 689.922L829.267 689.939L829.235 689.959L829.749 690.816ZM863.733 691.68L863.026 692.387L863.084 692.446L863.152 692.494L863.733 691.68ZM857.397 711.84L856.646 711.18L856.644 711.182L857.397 711.84ZM834.069 727.968L834.482 728.879L834.069 727.968ZM830.613 644.16V645.16H831.613V644.16H830.613ZM821.973 615.936L821.194 616.563L821.199 616.57L821.205 616.576L821.973 615.936ZM775.317 615.936L774.538 615.309L774.538 615.309L775.317 615.936ZM766.965 644.16H765.965V645.16H766.965V644.16ZM798.645 733.88C777.536 733.88 760.813 727.801 748.365 715.73L746.973 717.166C759.869 729.671 777.13 735.88 798.645 735.88V733.88ZM748.376 715.741C736.12 703.485 729.558 686.281 728.796 663.998L726.798 664.066C727.572 686.711 734.258 704.451 746.962 717.155L748.376 715.741ZM728.796 663.992L728.508 656.792L726.51 656.872L726.798 664.072L728.796 663.992ZM728.508 656.872L728.796 649.672L726.798 649.592L726.51 656.792L728.508 656.872ZM728.796 649.676C729.748 627.975 736.401 611.05 748.664 598.787L747.25 597.373C734.553 610.07 727.766 627.513 726.798 649.588L728.796 649.676ZM748.659 598.793C761.109 586.531 777.735 580.36 798.645 580.36V578.36C777.315 578.36 760.149 584.669 747.255 597.368L748.659 598.793ZM798.645 580.36C821.085 580.36 838.257 587.197 850.314 600.76L851.808 599.432C839.289 585.347 821.517 578.36 798.645 578.36V580.36ZM850.319 600.766C862.596 614.365 868.781 632.538 868.781 655.392H870.781C870.781 632.166 864.486 613.475 851.803 599.426L850.319 600.766ZM868.781 655.392V661.44H870.781V655.392H868.781ZM868.781 661.44C868.781 663.098 868.212 664.475 867.058 665.629L868.472 667.043C870.006 665.509 870.781 663.622 870.781 661.44H868.781ZM867.058 665.629C865.923 666.764 864.46 667.352 862.581 667.352V669.352C864.926 669.352 866.919 668.596 868.472 667.043L867.058 665.629ZM862.581 667.352H766.965V669.352H862.581V667.352ZM765.965 668.352V670.656H767.965V668.352H765.965ZM765.966 670.692C766.356 681.419 769.286 690.55 774.8 698.033L776.41 696.847C771.172 689.738 768.342 681.013 767.964 670.62L765.966 670.692ZM774.818 698.057C780.589 705.42 788.472 709.096 798.357 709.096V707.096C789.042 707.096 781.757 703.668 776.392 696.823L774.818 698.057ZM798.357 709.096C809.989 709.096 819.401 704.541 826.505 695.464L824.929 694.232C818.209 702.819 809.381 707.096 798.357 707.096V709.096ZM826.491 695.481C828.221 693.366 829.469 692.15 830.264 691.674L829.235 689.959C828.109 690.634 826.669 692.106 824.943 694.215L826.491 695.481ZM830.196 691.71C831.148 691.235 832.601 690.952 834.645 690.952V688.952C832.465 688.952 830.654 689.245 829.302 689.922L830.196 691.71ZM834.645 690.952H859.413V688.952H834.645V690.952ZM859.413 690.952C860.894 690.952 862.074 691.435 863.026 692.387L864.44 690.973C863.088 689.621 861.388 688.952 859.413 688.952V690.952ZM863.152 692.494C864.256 693.283 864.749 694.238 864.749 695.424H866.749C866.749 693.538 865.898 691.997 864.314 690.866L863.152 692.494ZM864.749 695.424C864.749 699.655 862.172 704.892 856.646 711.18L858.148 712.5C863.758 706.117 866.749 700.409 866.749 695.424H864.749ZM856.644 711.182C851.39 717.186 843.748 722.488 833.656 727.057L834.482 728.879C844.742 724.233 852.652 718.782 858.15 712.499L856.644 711.182ZM833.656 727.057C823.634 731.596 811.971 733.88 798.645 733.88V735.88C812.199 735.88 824.152 733.556 834.482 728.879L833.656 727.057ZM831.613 644.16V643.296H829.613V644.16H831.613ZM831.613 643.296C831.613 631.796 828.686 622.43 822.741 615.296L821.205 616.576C826.78 623.266 829.613 632.14 829.613 643.296H831.613ZM822.752 615.309C816.969 608.13 808.889 604.568 798.645 604.568V606.568C808.369 606.568 815.841 609.918 821.194 616.563L822.752 615.309ZM798.645 604.568C788.401 604.568 780.321 608.13 774.538 615.309L776.096 616.563C781.449 609.918 788.921 606.568 798.645 606.568V604.568ZM774.538 615.309C768.791 622.443 765.965 631.804 765.965 643.296H767.965C767.965 632.132 770.707 623.253 776.096 616.563L774.538 615.309ZM765.965 643.296V644.16H767.965V643.296H765.965ZM766.965 645.16H830.613V643.16H766.965V645.16ZM916.628 776.352L917.496 776.848L917.526 776.796L917.55 776.741L916.628 776.352ZM939.092 723.072L940.014 723.461L940.178 723.071L940.013 722.682L939.092 723.072ZM883.796 592.608L884.717 592.218L884.714 592.21L884.71 592.202L883.796 592.608ZM882.644 588.576L881.65 588.466L881.644 588.521V588.576H882.644ZM884.66 584.256L885.367 584.963L885.395 584.936L885.42 584.907L884.66 584.256ZM920.084 587.712L921.011 587.335L921.006 587.324L920.084 587.712ZM958.388 681.888L957.462 682.265L958.375 684.509L959.311 682.274L958.388 681.888ZM997.844 587.712L996.923 587.324L996.922 587.326L997.844 587.712ZM1032.69 583.968L1031.99 584.675L1032.01 584.702L1032.04 584.727L1032.69 583.968ZM1033.56 592.608L1032.64 592.202L1032.64 592.211L1033.56 592.608ZM952.052 781.248L952.956 781.676L952.963 781.661L952.97 781.645L952.052 781.248ZM921.236 785.72C919.983 785.72 918.888 785.262 917.911 784.285L916.497 785.699C917.824 787.026 919.418 787.72 921.236 787.72V785.72ZM917.911 784.285C916.934 783.308 916.476 782.213 916.476 780.96H914.476C914.476 782.779 915.17 784.372 916.497 785.699L917.911 784.285ZM916.476 780.96C916.476 779.385 916.825 778.024 917.496 776.848L915.76 775.856C914.896 777.368 914.476 779.079 914.476 780.96H916.476ZM917.55 776.741L940.014 723.461L938.171 722.684L915.707 775.964L917.55 776.741ZM940.013 722.682L884.717 592.218L882.876 592.998L938.172 723.462L940.013 722.682ZM884.71 592.202C883.954 590.502 883.644 589.317 883.644 588.576H881.644C881.644 589.755 882.102 591.258 882.882 593.014L884.71 592.202ZM883.638 588.686C883.807 587.168 884.387 585.943 885.367 584.963L883.953 583.549C882.629 584.873 881.866 586.528 881.65 588.466L883.638 588.686ZM885.42 584.907C886.387 583.778 887.552 583.24 888.98 583.24V581.24C886.952 581.24 885.238 582.046 883.901 583.605L885.42 584.907ZM888.98 583.24H912.308V581.24H888.98V583.24ZM912.308 583.24C913.958 583.24 915.31 583.65 916.413 584.426C917.521 585.206 918.449 586.406 919.163 588.1L921.006 587.324C920.183 585.37 919.047 583.834 917.564 582.79C916.075 581.742 914.306 581.24 912.308 581.24V583.24ZM919.158 588.089L957.462 682.265L959.315 681.511L921.011 587.335L919.158 588.089ZM959.311 682.274L998.767 588.098L996.922 587.326L957.466 681.502L959.311 682.274ZM998.766 588.1C999.479 586.406 1000.41 585.206 1001.52 584.426C1002.62 583.65 1003.97 583.24 1005.62 583.24V581.24C1003.62 581.24 1001.85 581.742 1000.36 582.79C998.881 583.834 997.745 585.37 996.923 587.324L998.766 588.1ZM1005.62 583.24H1028.66V581.24H1005.62V583.24ZM1028.66 583.24C1029.91 583.24 1031.01 583.698 1031.99 584.675L1033.4 583.261C1032.07 581.934 1030.48 581.24 1028.66 581.24V583.24ZM1032.04 584.727C1033.2 585.721 1033.71 586.802 1033.71 588H1035.71C1035.71 586.126 1034.87 584.519 1033.34 583.209L1032.04 584.727ZM1033.71 588C1033.71 589.159 1033.38 590.553 1032.64 592.202L1034.47 593.014C1035.27 591.207 1035.71 589.529 1035.71 588H1033.71ZM1032.64 592.211L951.134 780.851L952.97 781.645L1034.47 593.005L1032.64 592.211ZM951.149 780.82C950.343 782.521 949.343 783.734 948.179 784.525C947.02 785.311 945.638 785.72 943.988 785.72V787.72C945.987 787.72 947.772 787.217 949.302 786.18C950.825 785.146 952.034 783.623 952.956 781.676L951.149 780.82ZM943.988 785.72H921.236V787.72H943.988V785.72Z" fill="#FFFBFB"/>
</g>
<g filter="url(#filter2_d)">
<path d="M266.869 901.395C261.632 902.714 256.902 902.359 252.678 900.329C248.89 897.571 246.336 893.573 245.017 888.337L235.344 849.937C233.732 843.537 233.867 837.934 235.75 833.128C237.634 828.323 241.697 822.349 247.942 815.207L440.731 596.798L167.479 495.786C158.743 493.037 152.407 489.992 148.472 486.652C144.537 483.312 141.763 478.442 140.151 472.042L130.478 433.642C129.159 428.405 129.588 423.966 131.764 420.324C134.375 415.954 138.299 413.109 143.536 411.79C148.772 410.471 156.487 411.621 166.68 415.241L489.078 534.501C500.146 539.138 508.158 543.926 513.115 548.865C518.653 553.657 522.449 560.126 524.5 568.271L528.238 583.108C530.29 591.253 530.012 598.748 527.405 605.592C524.798 612.437 519.937 620.158 512.822 628.756L285.616 887.391C278.354 895.408 272.105 900.076 266.869 901.395Z" fill="black"/>
<path d="M252.678 900.329L252.09 901.137L252.163 901.191L252.245 901.23L252.678 900.329ZM235.75 833.128L236.681 833.493L236.681 833.493L235.75 833.128ZM247.942 815.207L247.192 814.545L247.189 814.549L247.942 815.207ZM440.731 596.798L441.481 597.46L442.446 596.366L441.078 595.86L440.731 596.798ZM167.479 495.786L167.826 494.848L167.803 494.839L167.779 494.832L167.479 495.786ZM148.472 486.652L147.825 487.414L147.825 487.414L148.472 486.652ZM131.764 420.324L130.905 419.811L130.905 419.811L131.764 420.324ZM166.68 415.241L167.027 414.303L167.015 414.299L166.68 415.241ZM489.078 534.501L489.465 533.579L489.445 533.57L489.425 533.563L489.078 534.501ZM513.115 548.865L512.409 549.573L512.434 549.598L512.461 549.621L513.115 548.865ZM527.405 605.592L528.339 605.948L528.339 605.948L527.405 605.592ZM512.822 628.756L513.573 629.416L513.583 629.405L513.592 629.394L512.822 628.756ZM285.616 887.391L286.357 888.063L286.362 888.057L286.367 888.051L285.616 887.391ZM266.624 900.425C261.578 901.696 257.093 901.341 253.112 899.428L252.245 901.23C256.711 903.376 261.686 903.732 267.113 902.365L266.624 900.425ZM253.267 899.52C249.696 896.921 247.258 893.139 245.987 888.093L244.047 888.581C245.414 894.008 248.084 898.221 252.09 901.137L253.267 899.52ZM245.987 888.093L236.314 849.692L234.374 850.181L244.047 888.581L245.987 888.093ZM236.314 849.692C234.738 843.438 234.893 838.057 236.681 833.493L234.819 832.763C232.841 837.811 232.725 843.635 234.374 850.181L236.314 849.692ZM236.681 833.493C238.501 828.85 242.474 822.98 248.695 815.865L247.189 814.549C240.921 821.717 236.766 827.795 234.819 832.763L236.681 833.493ZM248.692 815.869L441.481 597.46L439.981 596.136L247.192 814.545L248.692 815.869ZM441.078 595.86L167.826 494.848L167.132 496.724L440.384 597.736L441.078 595.86ZM167.779 494.832C159.087 492.096 152.902 489.101 149.119 485.89L147.825 487.414C151.912 490.883 158.399 493.977 167.179 496.74L167.779 494.832ZM149.119 485.89C145.382 482.718 142.696 478.052 141.121 471.798L139.181 472.286C140.83 478.832 143.692 483.906 147.825 487.414L149.119 485.89ZM141.121 471.798L131.448 433.397L129.508 433.886L139.181 472.286L141.121 471.798ZM131.448 433.397C130.175 428.344 130.617 424.193 132.622 420.837L130.905 419.811C128.559 423.738 128.143 428.466 129.508 433.886L131.448 433.397ZM132.622 420.837C135.089 416.709 138.784 414.018 143.78 412.76L143.292 410.82C137.815 412.2 133.662 415.198 130.905 419.811L132.622 420.837ZM143.78 412.76C148.712 411.517 156.184 412.575 166.345 416.183L167.015 414.299C156.79 410.668 148.833 409.424 143.292 410.82L143.78 412.76ZM166.333 416.179L488.731 535.439L489.425 533.563L167.027 414.303L166.333 416.179ZM488.692 535.423C499.714 540.041 507.587 544.768 512.409 549.573L513.821 548.156C508.73 543.083 500.579 538.235 489.465 533.579L488.692 535.423ZM512.461 549.621C517.822 554.26 521.521 560.539 523.531 568.516L525.47 568.027C523.376 559.713 519.485 553.054 513.769 548.108L512.461 549.621ZM523.531 568.516L527.268 583.352L529.208 582.864L525.47 568.027L523.531 568.516ZM527.268 583.352C529.278 591.329 528.994 598.611 526.47 605.236L528.339 605.948C531.03 598.885 531.302 591.178 529.208 582.864L527.268 583.352ZM526.47 605.236C523.917 611.94 519.129 619.565 512.051 628.119L513.592 629.394C520.744 620.751 525.679 612.934 528.339 605.948L526.47 605.236ZM512.07 628.096L284.865 886.731L286.367 888.051L513.573 629.416L512.07 628.096ZM284.875 886.72C277.636 894.711 271.556 899.183 266.624 900.425L267.113 902.365C272.654 900.969 279.073 896.104 286.357 888.063L284.875 886.72Z" fill="#FFFAFA"/>
</g>
<g filter="url(#filter3_d)">
<path d="M470.6 878.9C464.6 878.9 459.5 877.1 455.3 873.5C451.7 869.9 449.9 864.8 449.9 858.2V824C449.9 818 451.7 813.2 455.3 809.6C459.5 805.4 464.6 803.3 470.6 803.3H992.6C998.6 803.3 1003.4 805.4 1007 809.6C1011.2 813.2 1013.3 818 1013.3 824V858.2C1013.3 864.8 1011.5 869.9 1007.9 873.5C1004.3 877.1 999.2 878.9 992.6 878.9H470.6Z" fill="black"/>
<path d="M455.3 873.5L454.593 874.207L454.62 874.234L454.649 874.259L455.3 873.5ZM455.3 809.6L454.593 808.893L454.593 808.893L455.3 809.6ZM1007 809.6L1006.24 810.251L1006.29 810.309L1006.35 810.359L1007 809.6ZM1007.9 873.5L1008.61 874.207L1008.61 874.207L1007.9 873.5ZM470.6 877.9C464.817 877.9 459.954 876.172 455.951 872.741L454.649 874.259C459.046 878.028 464.383 879.9 470.6 879.9V877.9ZM456.007 872.793C452.646 869.431 450.9 864.617 450.9 858.2H448.9C448.9 864.983 450.754 870.369 454.593 874.207L456.007 872.793ZM450.9 858.2V824H448.9V858.2H450.9ZM450.9 824C450.9 818.214 452.628 813.686 456.007 810.307L454.593 808.893C450.772 812.714 448.9 817.786 448.9 824H450.9ZM456.007 810.307C460.017 806.297 464.862 804.3 470.6 804.3V802.3C464.338 802.3 458.983 804.503 454.593 808.893L456.007 810.307ZM470.6 804.3H992.6V802.3H470.6V804.3ZM992.6 804.3C998.336 804.3 1002.85 806.293 1006.24 810.251L1007.76 808.949C1003.95 804.507 998.864 802.3 992.6 802.3V804.3ZM1006.35 810.359C1010.31 813.752 1012.3 818.264 1012.3 824H1014.3C1014.3 817.736 1012.09 812.648 1007.65 808.841L1006.35 810.359ZM1012.3 824V858.2H1014.3V824H1012.3ZM1012.3 858.2C1012.3 864.617 1010.55 869.431 1007.19 872.793L1008.61 874.207C1012.45 870.369 1014.3 864.983 1014.3 858.2H1012.3ZM1007.19 872.793C1003.83 876.154 999.017 877.9 992.6 877.9V879.9C999.383 879.9 1004.77 878.046 1008.61 874.207L1007.19 872.793ZM992.6 877.9H470.6V879.9H992.6V877.9Z" fill="#FFFBFB"/>
</g>
</g>
<defs>
<filter id="filter0_d" x="124.732" y="410.262" width="914.977" height="500.912" filterUnits="userSpaceOnUse" color-interpolation-filters="sRGB">
<feFlood flood-opacity="0" result="BackgroundImageFix"/>
<feColorMatrix in="SourceAlpha" type="matrix" values="0 0 0 0 0 0 0 0 0 0 0 0 0 0 0 0 0 0 127 0" result="hardAlpha"/>
<feOffset dy="4"/>
<feGaussianBlur stdDeviation="2"/>
<feComposite in2="hardAlpha" operator="out"/>
<feColorMatrix type="matrix" values="0 0 0 0 0 0 0 0 0 0 0 0 0 0 0 0 0 0 0.25 0"/>
<feBlend mode="normal" in2="BackgroundImageFix" result="effect1_dropShadow"/>
<feBlend mode="normal" in="SourceGraphic" in2="effect1_dropShadow" result="shape"/>
</filter>
<filter id="filter1_d" x="531.16" y="529.4" width="508.548" height="266.32" filterUnits="userSpaceOnUse" color-interpolation-filters="sRGB">
<feFlood flood-opacity="0" result="BackgroundImageFix"/>
<feColorMatrix in="SourceAlpha" type="matrix" values="0 0 0 0 0 0 0 0 0 0 0 0 0 0 0 0 0 0 127 0" result="hardAlpha"/>
<feOffset dy="4"/>
<feGaussianBlur stdDeviation="2"/>
<feComposite in2="hardAlpha" operator="out"/>
<feColorMatrix type="matrix" values="0 0 0 0 0 0 0 0 0 0 0 0 0 0 0 0 0 0 0.25 0"/>
<feBlend mode="normal" in2="BackgroundImageFix" result="effect1_dropShadow"/>
<feBlend mode="normal" in="SourceGraphic" in2="effect1_dropShadow" result="shape"/>
</filter>
<filter id="filter2_d" x="124.732" y="410.262" width="409.862" height="500.912" filterUnits="userSpaceOnUse" color-interpolation-filters="sRGB">
<feFlood flood-opacity="0" result="BackgroundImageFix"/>
<feColorMatrix in="SourceAlpha" type="matrix" values="0 0 0 0 0 0 0 0 0 0 0 0 0 0 0 0 0 0 127 0" result="hardAlpha"/>
<feOffset dy="4"/>
<feGaussianBlur stdDeviation="2"/>
<feComposite in2="hardAlpha" operator="out"/>
<feColorMatrix type="matrix" values="0 0 0 0 0 0 0 0 0 0 0 0 0 0 0 0 0 0 0.25 0"/>
<feBlend mode="normal" in2="BackgroundImageFix" result="effect1_dropShadow"/>
<feBlend mode="normal" in="SourceGraphic" in2="effect1_dropShadow" result="shape"/>
</filter>
<filter id="filter3_d" x="444.9" y="802.3" width="573.4" height="85.6" filterUnits="userSpaceOnUse" color-interpolation-filters="sRGB">
<feFlood flood-opacity="0" result="BackgroundImageFix"/>
<feColorMatrix in="SourceAlpha" type="matrix" values="0 0 0 0 0 0 0 0 0 0 0 0 0 0 0 0 0 0 127 0" result="hardAlpha"/>
<feOffset dy="4"/>
<feGaussianBlur stdDeviation="2"/>
<feComposite in2="hardAlpha" operator="out"/>
<feColorMatrix type="matrix" values="0 0 0 0 0 0 0 0 0 0 0 0 0 0 0 0 0 0 0.25 0"/>
<feBlend mode="normal" in2="BackgroundImageFix" result="effect1_dropShadow"/>
<feBlend mode="normal" in="SourceGraphic" in2="effect1_dropShadow" result="shape"/>
</filter>
</defs>
</svg>
