<svg width="491" height="486" viewBox="0 0 491 486" fill="none" xmlns="http://www.w3.org/2000/svg">
<path d="M85.6848 335.561C84.011 335.991 82.4982 335.884 81.1462 335.24C79.933 334.362 79.1139 333.085 78.6888 331.41L75.5719 319.128C75.0524 317.081 75.0923 315.286 75.6916 313.745C76.2908 312.204 77.5868 310.285 79.5794 307.99L141.097 237.787L53.6521 205.82C50.8566 204.952 48.8287 203.986 47.5683 202.922C46.3078 201.858 45.4178 200.302 44.8984 198.255L41.7814 185.972C41.3564 184.297 41.4907 182.875 42.1845 181.706C43.0169 180.303 44.27 179.387 45.9438 178.957C47.6175 178.528 50.0853 178.885 53.3471 180.03L156.52 217.773C160.062 219.242 162.628 220.764 164.216 222.339C165.99 223.866 167.207 225.932 167.868 228.537L169.073 233.283C169.734 235.888 169.65 238.289 168.82 240.484C167.991 242.679 166.441 245.158 164.171 247.921L91.6714 331.052C89.3541 333.629 87.3585 335.132 85.6848 335.561Z" fill="#5FA31A" fill-opacity="0.98"/>
<path d="M229.53 331.942C227.67 332.419 225.948 332.266 224.363 331.484C222.963 330.654 222.004 329.215 221.485 327.168L218.793 316.56C218.32 314.699 218.501 313.067 219.333 311.664C220.304 310.027 221.72 308.97 223.579 308.493L385.375 266.964C387.234 266.487 388.888 266.756 390.334 267.772C391.919 268.555 392.948 269.877 393.42 271.738L396.112 282.345C396.631 284.393 396.475 286.118 395.643 287.521C394.81 288.924 393.371 289.888 391.325 290.413L229.53 331.942Z" fill="black" fill-opacity="0.98"/>
</svg>
