<svg width="229" height="247" viewBox="0 0 229 247" fill="none" xmlns="http://www.w3.org/2000/svg">
<path d="M41.0924 169.424C40.2605 169.657 39.513 169.618 38.8498 169.306C38.2574 168.875 37.8635 168.238 37.668 167.397L36.235 161.225C35.9961 160.196 36.0318 159.29 36.3419 158.505C36.6521 157.721 37.3103 156.74 38.3165 155.561L69.3753 119.507L26.3959 104.223C25.0206 103.812 24.0258 103.344 23.4117 102.819C22.7975 102.294 22.371 101.517 22.1322 100.489L20.6991 94.3167C20.5037 93.4751 20.5828 92.7557 20.9364 92.1585C21.3607 91.4418 21.9888 90.9668 22.8207 90.7335C23.6526 90.5001 24.8703 90.6565 26.4739 91.2027L77.1832 109.249C78.9227 109.957 80.1783 110.7 80.95 111.48C81.8142 112.233 82.3982 113.265 82.7022 114.574L83.2559 116.958C83.5599 118.267 83.4969 119.48 83.0671 120.597C82.6372 121.714 81.8484 122.981 80.7008 124.398L44.0943 167.088C42.9249 168.412 41.9243 169.191 41.0924 169.424Z" fill="#5FA31A" fill-opacity="0.98"/>
<path d="M112.291 166.185C111.367 166.444 110.516 166.384 109.739 166.004C109.054 165.599 108.592 164.882 108.353 163.853L107.115 158.523C106.898 157.588 107.002 156.762 107.426 156.045C107.921 155.209 108.631 154.662 109.555 154.402L189.971 131.844C190.896 131.585 191.711 131.705 192.418 132.204C193.195 132.583 193.692 133.241 193.909 134.176L195.147 139.506C195.386 140.535 195.293 141.407 194.869 142.124C194.444 142.841 193.724 143.341 192.707 143.627L112.291 166.185Z" fill="black" fill-opacity="0.98"/>
</svg>
