<svg width="85" height="87" viewBox="0 0 85 87" fill="none" xmlns="http://www.w3.org/2000/svg">
<path d="M14.5892 57.3905C14.311 57.4649 14.0602 57.4492 13.8369 57.3434C13.6369 57.1982 13.5029 56.9857 13.4347 56.7058L12.9351 54.6538C12.8518 54.3118 12.861 54.0113 12.9626 53.7523C13.0641 53.4933 13.2818 53.1701 13.6155 52.7828L23.9182 40.936L9.45957 35.7135C8.99714 35.5722 8.66215 35.4135 8.45459 35.2372C8.24704 35.0609 8.10163 34.8017 8.01836 34.4597L7.51873 32.4077C7.4506 32.1278 7.47489 31.8895 7.59161 31.6927C7.73166 31.4566 7.9408 31.3013 8.21902 31.2268C8.49723 31.1524 8.90604 31.2086 9.44543 31.3955L26.5045 37.5616C27.0899 37.8024 27.5132 38.0535 27.7744 38.3148C28.0665 38.5678 28.2656 38.9119 28.3715 39.3472L28.5646 40.1401C28.6706 40.5754 28.6532 40.9774 28.5125 41.3462C28.3718 41.715 28.1113 42.1324 27.7308 42.5985L15.5885 56.6264C15.2006 57.0614 14.8674 57.3161 14.5892 57.3905Z" fill="#5FA31A" fill-opacity="0.98"/>
<path d="M38.4527 56.5701C38.1435 56.6528 37.8581 56.6298 37.5963 56.5011C37.3654 56.3642 37.2083 56.1247 37.125 55.7827L36.6935 54.0105C36.6178 53.6996 36.65 53.426 36.79 53.1899C36.9534 52.9143 37.1897 52.7352 37.4988 52.6525L64.3931 45.4577C64.7022 45.375 64.976 45.4176 65.2145 45.5857C65.4763 45.7143 65.645 45.9341 65.7207 46.245L66.1522 48.0173C66.2355 48.3593 66.2071 48.6484 66.0671 48.8845C65.927 49.1207 65.6869 49.2843 65.3469 49.3752L38.4527 56.5701Z" fill="black" fill-opacity="0.98"/>
</svg>
